<svg xmlns="http://www.w3.org/2000/svg" xmlns:xlink="http://www.w3.org/1999/xlink" viewBox="0 0 206.24 274.56"><defs><style>.cls-1{fill:#0c5d2f;}.cls-1,.cls-11,.cls-12,.cls-14,.cls-15,.cls-19,.cls-2,.cls-20,.cls-3,.cls-4,.cls-9{stroke:#231f20;stroke-miterlimit:10;}.cls-1,.cls-2,.cls-3{stroke-width:3px;}.cls-2{fill:#5d9e69;}.cls-3{fill:url(#radial-gradient);}.cls-15,.cls-18,.cls-4,.cls-6,.cls-8{fill:#fff;}.cls-11,.cls-19,.cls-20,.cls-4,.cls-9{stroke-width:2px;}.cls-5,.cls-8{opacity:0.6;}.cls-6{opacity:0.8;}.cls-7{fill:#0f331c;opacity:0.1;}.cls-9{fill:#accd96;}.cls-10{fill:#3a4235;opacity:0.2;}.cls-11{fill:#54af67;}.cls-12{fill:none;}.cls-13{fill:#d2e8c3;}.cls-14,.cls-16{fill:#55af68;}.cls-17{fill:#231f20;}.cls-19{fill:url(#radial-gradient-2);}.cls-20{fill:url(#radial-gradient-3);}.cls-21{fill:#483831;}.cls-22{fill:#302724;}</style><radialGradient id="radial-gradient" cx="128.99" cy="157.22" r="95.09" gradientTransform="matrix(-1, 0, 0, 1, 232.11, 0)" gradientUnits="userSpaceOnUse"><stop offset="0" stop-color="#fff"/><stop offset="1" stop-color="#eaece0"/></radialGradient><radialGradient id="radial-gradient-2" cx="64.16" cy="167.42" r="13.56" gradientTransform="translate(0.27)" xlink:href="#radial-gradient"/><radialGradient id="radial-gradient-3" cx="116.94" cy="167.42" r="13.56" gradientTransform="translate(2.41) scale(0.98 1)" xlink:href="#radial-gradient"/></defs><g id="Layer_2" data-name="Layer 2"><g id="Layer_1-2" data-name="Layer 1"><path class="cls-1" d="M1.5,171.44A101.62,101.62,0,1,0,103.12,69.81,101.14,101.14,0,0,0,1.5,171.44Z"/><polyline class="cls-2" points="105.28 243.13 94.93 270.38 117.65 255.71 111.46 249.82 117.65 241.6"/><polyline class="cls-2" points="79.49 243.13 90.66 270.73 66.83 255.71 73.17 249.82 66.83 241.6"/><path class="cls-3" d="M1.5,170.78a101.17,101.17,0,0,0,11.86,47.68c22,16.65,51.49,26.83,83.87,26.83,43.26,0,81.32-18.16,103.36-45.65A101.64,101.64,0,1,0,1.5,170.78Z"/><path class="cls-4" d="M105.28,244.79s-18,1.17-24.79,0l11.16,28,2.73.15Z"/><g class="cls-5"><path class="cls-6" d="M52.56,98.1S67.45,85.26,80.55,84s16.18,7.44,2.31,12.84-38.78,29.53-38.78,29.53-8,8.48-12.33,1S52.56,98.1,52.56,98.1Z"/><path class="cls-6" d="M30.1,138.75s3.5,3.76-3.49,16.6-12,11.42-12,11.42-6.75-.16-.08-18.53S30.1,138.75,30.1,138.75Z"/></g><path class="cls-7" d="M48.23,254.59a98.29,98.29,0,0,0,155.41-80.1c0-43.56-26-85.47-65.27-98.39,25,17.82,39,52,39,85.06A98.41,98.41,0,0,1,48.23,254.59Z"/><path class="cls-8" d="M3,171.91a96.63,96.63,0,0,0,11.63,45c.82,1.53-8.14-22.79-8.14-40a101.62,101.62,0,0,1,177-68.13A101.39,101.39,0,0,0,104,70.33C47.84,70.33,1.69,115.79,3,171.91Z"/><ellipse class="cls-9" cx="120.94" cy="98.03" rx="22.37" ry="78.16" transform="translate(-0.76 195.12) rotate(-77.61)"/><path class="cls-10" d="M52.4,94.86c12,9.26,35.31,18.79,63,24.87,42.16,9.27,78.49,7,81.14-5.07,1.79-8.14-12.2-18.66-34.44-27.49,6.28,4.84,9.47,9.61,8.56,13.75C168,113,131.67,115.27,89.51,106A242.76,242.76,0,0,1,52.4,94.86Z"/><polyline class="cls-9" points="171.91 105.97 188.54 30.29 87.96 8.19 71.33 83.88"/><path class="cls-11" d="M174.55,94c-1.65,7.53-25.51,8.7-53.29,2.6S72.31,79.39,74,71.85l-2.64,12c-1.66,7.54,19.52,18.6,47.29,24.7s51.63,4.93,53.29-2.61Z"/><path class="cls-12" d="M187.86,33.38c-1.66,7.54-25.52,8.7-53.29,2.6S85.62,18.82,87.28,11.28"/><path class="cls-12" d="M175.4,90.1c-1.66,7.54-25.52,8.7-53.29,2.6S73.16,75.54,74.82,68"/><ellipse class="cls-9" cx="138.39" cy="18.56" rx="13.98" ry="51.49" transform="translate(90.57 149.75) rotate(-77.61)"/><path class="cls-13" d="M88.81,7.54c-.39,1.34.15,2.75,1.68,4.7a4.53,4.53,0,0,1-.31-2.53c1.62-7.35,25.12-8.44,52.49-2.43,22.36,4.91,39.92,13.45,44.88,20.27-2.67-7.15-21.47-16.77-45.92-22.14C114.26-.6,90.91.34,88.81,7.54Z"/><circle class="cls-14" cx="128.6" cy="63.15" r="23.27"/><path class="cls-15" d="M132.67,48.53a11.15,11.15,0,0,1,2.87,1.63,9.27,9.27,0,0,1,2,2.09,8.94,8.94,0,0,1,1.1,2.29,8.66,8.66,0,0,1,.43,2.29,7.77,7.77,0,0,1-.17,2,7.16,7.16,0,0,1-1.4,3,8.14,8.14,0,0,1-2.38,2,18.24,18.24,0,0,1-2.93,1.33q-1.58.57-3.12,1t-2.82.78A8.27,8.27,0,0,0,124,68,2.34,2.34,0,0,0,123,69.35q-.49,2.43,3,3.2a4.36,4.36,0,0,0,3.49-.85,11.51,11.51,0,0,0,3.32-4,5.86,5.86,0,0,1,3.22,2.09,3.92,3.92,0,0,1,.61,3.26q-.49,2.23-3.42,3.26a12.82,12.82,0,0,1-6.61.37l-.48,4.87L121.47,80,123,75.56a11.24,11.24,0,0,1-5-4,7.17,7.17,0,0,1-1-5.65,7.06,7.06,0,0,1,1.2-2.69,7.25,7.25,0,0,1,2-1.92,17.07,17.07,0,0,1,2.56-1.32,18.8,18.8,0,0,1,2.8-.94c.94-.24,1.86-.49,2.76-.76s1.71-.52,2.42-.78a5.88,5.88,0,0,0,1.82-1,2.62,2.62,0,0,0,.91-1.42,2.76,2.76,0,0,0-.35-2.15,2.86,2.86,0,0,0-1.93-1.26q-4-.89-6.35,5a5.93,5.93,0,0,1-3.2-2.2,4.12,4.12,0,0,1-.7-3.41,4.05,4.05,0,0,1,2.68-3,10.82,10.82,0,0,1,5.48-.4l.38-4.55,4.66,1.58Z"/><path class="cls-16" d="M169.69,82.23a14.63,14.63,0,0,0-.36,2.91,9.6,9.6,0,0,0,.24,2.35,6.75,6.75,0,0,0,.71,1.75,4.31,4.31,0,0,0,1,1.19,3.15,3.15,0,0,0,1.21.58,3.5,3.5,0,0,0,1.33,0,3.1,3.1,0,0,0,.69-.19l3-13.65a2.62,2.62,0,0,0-.22-.25,3.08,3.08,0,0,0-1.57-.95A3.81,3.81,0,0,0,172,77.29,10.19,10.19,0,0,0,169.69,82.23Zm3,.76c.21-.95.42-1.77.62-2.44a13.45,13.45,0,0,1,.56-1.58,3.36,3.36,0,0,1,.53-.87.84.84,0,0,1,1-.37,1,1,0,0,1,.54.31,2,2,0,0,1,.29.81,6.3,6.3,0,0,1,0,1.71c-.1.76-.27,1.72-.53,2.88s-.54,2.3-.78,3.11a8.2,8.2,0,0,1-.7,1.75,1.86,1.86,0,0,1-.61.69.86.86,0,0,1-.64.06.88.88,0,0,1-.54-.32,2,2,0,0,1-.28-.87,7.35,7.35,0,0,1,.06-1.82C172.28,85.24,172.46,84.22,172.73,83Z"/><path class="cls-16" d="M166.52,90a8.12,8.12,0,0,1-1.18,1.93A5.74,5.74,0,0,1,164,93a4,4,0,0,1-1.39.52,3.71,3.71,0,0,1-1.33,0,3.27,3.27,0,0,1-1.21-.57,4,4,0,0,1-1-1.17,6,6,0,0,1-.72-1.7,8.54,8.54,0,0,1-.26-2.29,13.61,13.61,0,0,1,.32-2.81,9.73,9.73,0,0,1,2.31-4.8A3.84,3.84,0,0,1,164.36,79a3.19,3.19,0,0,1,1.58.92,5.57,5.57,0,0,1,1.16,1.83,8.44,8.44,0,0,1,.54,2.54,10.44,10.44,0,0,1-.22,2.93A13.85,13.85,0,0,1,166.52,90Zm-1.66-6.59a5.86,5.86,0,0,0,0-1.66,1.8,1.8,0,0,0-.3-.79,1,1,0,0,0-.54-.3,1.11,1.11,0,0,0-.48,0,1.2,1.2,0,0,0-.48.35,3.38,3.38,0,0,0-.52.85,11.64,11.64,0,0,0-.54,1.53c-.2.66-.4,1.45-.6,2.38-.26,1.19-.43,2.17-.53,3a6.93,6.93,0,0,0-.05,1.78,1.84,1.84,0,0,0,.29.84.92.92,0,0,0,.55.32.89.89,0,0,0,.63-.07,1.76,1.76,0,0,0,.6-.67,7.65,7.65,0,0,0,.69-1.7c.24-.78.49-1.78.75-3S164.77,84.11,164.86,83.37Z"/><path class="cls-10" d="M183.62,55.81s-12.24,59.32-53.13,55.78c0,0,40,5.32,42-5.23Z"/><ellipse class="cls-4" cx="64.16" cy="182.78" rx="23.76" ry="18.03" transform="translate(-121.01 239.68) rotate(-87.74)"/><ellipse class="cls-17" cx="57.43" cy="184.87" rx="11.88" ry="8.34" transform="translate(-129.56 234.97) rotate(-87.74)"/><ellipse class="cls-18" cx="59.32" cy="179.84" rx="5.1" ry="4.05" transform="translate(-122.71 232.02) rotate(-87.74)"/><ellipse class="cls-4" cx="117.64" cy="182.78" rx="18.03" ry="23.76" transform="translate(-11.02 7.58) rotate(-3.53)"/><ellipse class="cls-17" cx="111.16" cy="185.54" rx="8.34" ry="11.88" transform="translate(-11.2 7.19) rotate(-3.53)"/><ellipse class="cls-18" cx="112.53" cy="180.34" rx="4.05" ry="5.1" transform="translate(-10.88 7.26) rotate(-3.53)"/><path class="cls-17" d="M78,144.77s-18.08-5.38-33.83.07c0,0,28.07,1.6,33.1,2.58S78,144.77,78,144.77Z"/><path class="cls-17" d="M105.85,145.27s18.05-5.43,33.82,0c0,0-28.06,1.69-33.09,2.68S105.85,145.27,105.85,145.27Z"/><path class="cls-19" d="M81.46,175.81H47.07c2.47-10,9.73-17.1,18-16.77C73,159.35,79.42,166.36,81.46,175.81Z"/><path class="cls-20" d="M134.42,175.81H100.5c2.44-10,9.6-17.1,17.77-16.77C126.06,159.35,132.41,166.36,134.42,175.81Z"/><path class="cls-21" d="M92.38,213c-.41-1.33-2.15-7.4,1.18-11.94a7.61,7.61,0,0,1,2-2c4.9-3.25,12.07.58,12.56.86,1.11.65,3.48,2.81,8.23,7.15,2.19,2,2.89,2.69,4.37,3.41,2.72,1.32,6.86,2.11,8.8.2.59-.57,1.11-1.56.83-2s-2.26-.48-3.66.24c-.53.28-.91.61-1.49.55a2,2,0,0,1-1.23-.84c-2.25-2.77,4.44-8.32,9.16-6.07,2.51,1.19,3.42,4.22,3.56,4.85.94,4.18-2,7.62-2.42,8.08,0,0-.24.27-.49.5-5.44,5.06-16.22,6.13-16.22,6.13-7.73.77-15,1.49-20.76-3.3A17.6,17.6,0,0,1,92.38,213Z"/><path class="cls-21" d="M91.36,211.88c.34-1.36,1.73-7.51-1.8-11.87a8.11,8.11,0,0,0-2.14-1.91c-5-3-11.9,1.22-12.37,1.53-1.06.71-3.29,3-7.75,7.58-2.06,2.11-2.72,2.85-4.14,3.64-2.63,1.47-6.67,2.48-8.69.67-.61-.54-1.19-1.49-.93-2s2.21-.6,3.63.05c.54.25.93.56,1.5.46a2.08,2.08,0,0,0,1.18-.9c2.07-2.89-4.84-8.07-9.38-5.58-2.42,1.33-3.16,4.41-3.27,5-.7,4.23,2.4,7.5,2.83,7.94,0,0,.25.25.51.47,5.65,4.76,16.37,5.25,16.37,5.25,7.68.36,14.91.69,20.34-4.4A17.55,17.55,0,0,0,91.36,211.88Z"/><path class="cls-22" d="M96.3,218.26c.17.17.36.33.55.49,5.76,4.79,13,4.07,20.76,3.3,0,0,10.78-1.07,16.22-6.13.25-.23.46-.46.49-.49.41-.47,3.36-3.9,2.42-8.09-.14-.63-1.05-3.66-3.56-4.85a5.47,5.47,0,0,0-1.62-.47,9.32,9.32,0,0,1,1.16,2.66c.93,4.18-2,7.62-2.43,8.08,0,0-.24.26-.49.5-5.44,5.06-16.22,6.13-16.22,6.13C107.34,220,101.39,220.59,96.3,218.26Z"/><path class="cls-22" d="M50,216.59s.25.25.51.46c5.65,4.77,16.37,5.26,16.37,5.26,7.68.35,14.91.68,20.34-4.41a16.48,16.48,0,0,0,3.24-4.21c.41-.8,1.7-2.67,1.23-3.64-.15-.48-4.62,5-7,6.81-5.85,4.45-14.14,3.13-21.82,2.78A38.66,38.66,0,0,1,50,216.59Z"/></g></g></svg>