<svg xmlns="http://www.w3.org/2000/svg" xmlns:xlink="http://www.w3.org/1999/xlink" viewBox="0 0 206.24 279.96"><defs><style>.cls-1{fill:#0c5d2f;}.cls-1,.cls-11,.cls-12,.cls-14,.cls-15,.cls-19,.cls-2,.cls-20,.cls-3,.cls-4,.cls-9{stroke:#231f20;stroke-miterlimit:10;}.cls-1,.cls-2,.cls-3{stroke-width:3px;}.cls-2{fill:#5d9e69;}.cls-3{fill:url(#radial-gradient);}.cls-15,.cls-18,.cls-4,.cls-6,.cls-8{fill:#fff;}.cls-11,.cls-19,.cls-20,.cls-4,.cls-9{stroke-width:2px;}.cls-5,.cls-8{opacity:0.6;}.cls-6{opacity:0.8;}.cls-7{fill:#0f331c;opacity:0.1;}.cls-9{fill:#accd96;}.cls-10{fill:#3a4235;opacity:0.2;}.cls-11{fill:#54af67;}.cls-12{fill:none;}.cls-13{fill:#d2e8c3;}.cls-14,.cls-16{fill:#55af68;}.cls-17{fill:#231f20;}.cls-19{fill:#77443c;}.cls-20{fill:#e2746f;}.cls-21{fill:#483831;}.cls-22{fill:#302724;}</style><radialGradient id="radial-gradient" cx="103.12" cy="162.63" r="95.09" gradientUnits="userSpaceOnUse"><stop offset="0" stop-color="#fff"/><stop offset="1" stop-color="#eaece0"/></radialGradient></defs><g id="Layer_2" data-name="Layer 2"><g id="Layer_1-2" data-name="Layer 1"><path class="cls-1" d="M204.74,176.85A101.62,101.62,0,1,1,103.12,75.22,101.17,101.17,0,0,1,204.74,176.85Z"/><polyline class="cls-2" points="126.25 248.54 115.09 276.14 138.91 261.12 132.58 255.23 138.91 247.01"/><polyline class="cls-2" points="100.96 248.54 111.31 275.78 88.59 261.12 94.78 255.23 88.59 247.01"/><path class="cls-3" d="M204.74,176.18a101.21,101.21,0,0,1-11.86,47.69c-22,16.65-51.49,26.83-83.87,26.83-43.26,0-81.32-18.16-103.35-45.65a101.63,101.63,0,1,1,199.08-28.87Z"/><path class="cls-4" d="M101,250.2s18,1.17,24.79,0l-11.16,28-2.73.15Z"/><g class="cls-5"><path class="cls-6" d="M153.69,103.51s-14.9-12.84-28-14.12-16.18,7.44-2.31,12.84,38.78,29.53,38.78,29.53,8,8.47,12.33,1S153.69,103.51,153.69,103.51Z"/><path class="cls-6" d="M176.14,144.16s-3.5,3.76,3.49,16.59,12,11.43,12,11.43,6.75-.16.08-18.53S176.14,144.16,176.14,144.16Z"/></g><path class="cls-7" d="M158,260A98.29,98.29,0,0,1,2.6,179.9c0-43.56,26.05-85.48,65.27-98.4-25,17.83-39,52-39,85.07A98.39,98.39,0,0,0,158,260Z"/><path class="cls-8" d="M203.24,177.32a96.63,96.63,0,0,1-11.63,45c-.82,1.53,8.14-22.79,8.14-40A101.62,101.62,0,0,0,98.13,80.63c-29.91,0-36-4.67-54.61,15.9,18.61-23.39,26.53-20.79,58.75-20.79C158.4,75.74,204.55,121.2,203.24,177.32Z"/><ellipse class="cls-9" cx="104.56" cy="96.34" rx="22.37" ry="78.16" transform="translate(7.42 200.16) rotate(-89.56)"/><path class="cls-10" d="M162.19,111.32c-13.76,6.36-28.7,7.64-57,7.42-43.17-.34-78.09-10.62-78-23,.07-8.33,16-15.48,39.69-19.14-7.2,3.32-11.37,7.26-11.4,11.5-.09,12.36,34.82,22.64,78,23C147.49,111.2,150.78,113.09,162.19,111.32Z"/><polyline class="cls-9" points="53.1 92.77 53.7 15.28 156.68 16.07 156.08 93.56"/><path class="cls-11" d="M53.2,80.45c-.06,7.72,22.94,14.16,51.38,14.38S156.11,89,156.17,81.25l-.09,12.31c-.06,7.72-23.16,13.8-51.6,13.58S53,100.49,53.1,92.77Z"/><path class="cls-12" d="M53.68,18.44c-.06,7.72,22.94,14.15,51.38,14.37S156.59,27,156.65,19.24"/><path class="cls-12" d="M53.23,76.51c-.06,7.72,22.94,14.16,51.38,14.38S156.14,85,156.2,77.31"/><ellipse class="cls-9" cx="105.19" cy="14.98" rx="13.98" ry="51.49" transform="translate(89.4 120.06) rotate(-89.56)"/><path class="cls-13" d="M156,15.25c.08,1.39-.76,2.65-2.68,4.2a4.61,4.61,0,0,0,.86-2.39c.05-7.53-22.61-13.81-50.64-14-22.9-.17-41.84,4.13-48.19,9.68C59.54,6.33,79.93,1.24,105,1.44,133,1.66,155.54,7.76,156,15.25Z"/><circle class="cls-14" cx="104.84" cy="60.63" r="23.27"/><path class="cls-15" d="M103.55,41.39l4.89-.5-.64,4.52A10.73,10.73,0,0,1,113.06,47a4,4,0,0,1,2,3.51,4.15,4.15,0,0,1-1.45,3.18,6,6,0,0,1-3.6,1.43q-.94-6.28-5.08-6.31a2.87,2.87,0,0,0-2.16.8,2.76,2.76,0,0,0-.82,2,2.62,2.62,0,0,0,.58,1.59A5.77,5.77,0,0,0,104,54.61c.64.41,1.37.84,2.19,1.3s1.67.91,2.53,1.35a19.56,19.56,0,0,1,2.52,1.54,17.09,17.09,0,0,1,2.2,1.86A7.4,7.4,0,0,1,115,63a7.16,7.16,0,0,1,.56,2.89,7.09,7.09,0,0,1-2.26,5.27A11.21,11.21,0,0,1,107.55,74l.51,4.62-4.92.51.61-4.86a13,13,0,0,1-6.37-1.83q-2.62-1.65-2.61-3.94a3.93,3.93,0,0,1,1.32-3,5.94,5.94,0,0,1,3.6-1.33A11.49,11.49,0,0,0,102,68.76a4.36,4.36,0,0,0,3.22,1.61q3.61,0,3.67-2.44a2.34,2.34,0,0,0-.71-1.59,8,8,0,0,0-1.89-1.45c-.78-.45-1.65-.91-2.59-1.39s-1.88-1-2.82-1.62a19.1,19.1,0,0,1-2.57-2,8.07,8.07,0,0,1-1.86-2.53,7.17,7.17,0,0,1-.7-3.23,7.63,7.63,0,0,1,.29-2A8.42,8.42,0,0,1,97,50a9.16,9.16,0,0,1,1.58-2A9.4,9.4,0,0,1,101,46.43a10.68,10.68,0,0,1,3.16-1Z"/><path class="cls-16" d="M59.34,64.77A3.79,3.79,0,0,0,56,62.71a3,3,0,0,0-1.74.57,2.34,2.34,0,0,0-.27.2l-.1,14a2.91,2.91,0,0,0,.62.34,3.73,3.73,0,0,0,1.31.26,3,3,0,0,0,1.3-.3,4.22,4.22,0,0,0,1.26-.94,6.43,6.43,0,0,0,1.07-1.55A9,9,0,0,0,60.24,73a14.61,14.61,0,0,0,.3-2.91A10.06,10.06,0,0,0,59.34,64.77Zm-2.07,8.5a6.8,6.8,0,0,1-.34,1.79,1.8,1.8,0,0,1-.47.78.87.87,0,0,1-.6.2.89.89,0,0,1-.61-.21,1.75,1.75,0,0,1-.43-.8,7.94,7.94,0,0,1-.3-1.87c-.06-.83-.08-1.9-.07-3.2s0-2.16.12-2.92a6.47,6.47,0,0,1,.34-1.68,2,2,0,0,1,.46-.72.89.89,0,0,1,.6-.18,1,1,0,0,1,.47.1,1.16,1.16,0,0,1,.39.46,3.43,3.43,0,0,1,.32,1,12.79,12.79,0,0,1,.19,1.67c0,.7.07,1.55.07,2.52C57.4,71.43,57.35,72.47,57.27,73.27Z"/><path class="cls-16" d="M61.66,75.43a10.05,10.05,0,0,1,.44-2.91,8.52,8.52,0,0,1,1.08-2.35,5.59,5.59,0,0,1,1.54-1.53,3.09,3.09,0,0,1,1.74-.54,3.79,3.79,0,0,1,3.3,2A9.46,9.46,0,0,1,71,75.3a13.17,13.17,0,0,1-.31,2.82,8.57,8.57,0,0,1-.75,2.17,6.72,6.72,0,0,1-1.08,1.5,4.26,4.26,0,0,1-1.26.91,3.06,3.06,0,0,1-1.31.28,3.62,3.62,0,0,1-1.3-.25,3.81,3.81,0,0,1-1.24-.82,5.22,5.22,0,0,1-1.06-1.42,7.74,7.74,0,0,1-.73-2.14A13.19,13.19,0,0,1,61.66,75.43Zm3.2-.3c0,1.26,0,2.3.07,3.11a7,7,0,0,0,.29,1.81,1.93,1.93,0,0,0,.43.79.93.93,0,0,0,.61.2.92.92,0,0,0,.6-.19,1.87,1.87,0,0,0,.47-.76,6.77,6.77,0,0,0,.35-1.74c.08-.78.12-1.78.13-3,0-.95,0-1.76,0-2.44a11.67,11.67,0,0,0-.19-1.62,3.2,3.2,0,0,0-.32-.94,1.05,1.05,0,0,0-.39-.45,1.11,1.11,0,0,0-.46-.11,1,1,0,0,0-.6.18,1.71,1.71,0,0,0-.46.7A5.93,5.93,0,0,0,65,72.3C64.91,73,64.87,74,64.86,75.13Z"/><path class="cls-10" d="M52.82,41.26s-1.24,60.56,39.42,66.19c0,0-40.21-3.71-39.82-14.44Z"/><ellipse class="cls-4" cx="86.93" cy="185.25" rx="23.76" ry="18.03" transform="translate(-101.61 264.81) rotate(-87.74)"/><ellipse class="cls-17" cx="80.2" cy="187.34" rx="11.88" ry="8.34" transform="translate(-110.16 260.09) rotate(-87.74)"/><ellipse class="cls-18" cx="82.09" cy="182.31" rx="5.1" ry="4.05" transform="translate(-103.31 257.15) rotate(-87.74)"/><ellipse class="cls-4" cx="140.41" cy="185.25" rx="18.03" ry="23.76" transform="translate(-11.13 8.99) rotate(-3.53)"/><ellipse class="cls-17" cx="133.92" cy="188.01" rx="8.34" ry="11.88" transform="translate(-11.31 8.59) rotate(-3.53)"/><ellipse class="cls-18" cx="135.3" cy="182.81" rx="4.05" ry="5.1" transform="translate(-10.99 8.67) rotate(-3.53)"/><path class="cls-17" d="M100.1,143.06s-18.85-.39-32.6,9c0,0,27.49-5.89,32.6-6.28S100.1,143.06,100.1,143.06Z"/><path class="cls-17" d="M129.27,143.51s18.85-.39,32.59,9c0,0-27.49-5.89-32.59-6.28S129.27,143.51,129.27,143.51Z"/><path class="cls-19" d="M140.41,218.18l-2.9.59-.14,1a21.74,21.74,0,0,1-13.57,14.87,29.91,29.91,0,0,1-10.61,1.77c-10.46,0-17-4.56-21-9.09s-3.26-9-3.26-9C100.4,221.49,137.49,218.8,140.41,218.18Z"/><path class="cls-20" d="M123.8,234.66a29.91,29.91,0,0,1-10.61,1.77c-10.46,0-17-4.56-21-9.09,2.42-4.55,10.13-6.39,18.22-4.07C117.6,225.32,122.88,230,123.8,234.66Z"/><path class="cls-21" d="M113.86,218.37c.41-1.33,2.15-7.4-1.18-12a7.75,7.75,0,0,0-2.05-2c-4.9-3.25-12.07.58-12.56.86-1.11.64-3.48,2.81-8.23,7.15-2.18,2-2.89,2.69-4.37,3.41-2.72,1.32-6.85,2.11-8.8.2-.58-.57-1.11-1.56-.82-2s2.26-.48,3.65.24c.53.28.91.61,1.49.54a2,2,0,0,0,1.23-.83c2.25-2.77-4.43-8.32-9.16-6.08-2.51,1.2-3.42,4.23-3.56,4.86-.93,4.18,2,7.62,2.42,8.08,0,0,.24.27.49.5,5.45,5.06,16.23,6.13,16.23,6.13,7.72.76,15,1.49,20.75-3.3A17.42,17.42,0,0,0,113.86,218.37Z"/><path class="cls-21" d="M114.88,217.29c-.34-1.36-1.73-7.51,1.8-11.87a7.94,7.94,0,0,1,2.14-1.91c5-3,11.9,1.22,12.37,1.53,1.06.7,3.29,3,7.76,7.58,2.05,2.11,2.71,2.85,4.13,3.64,2.63,1.47,6.67,2.47,8.69.67.61-.54,1.19-1.49.93-2s-2.21-.61-3.63.05c-.54.25-.93.56-1.5.46a2.08,2.08,0,0,1-1.18-.9c-2.07-2.89,4.84-8.07,9.38-5.58,2.42,1.33,3.16,4.4,3.27,5,.7,4.22-2.4,7.5-2.83,7.94,0,0-.25.25-.51.47-5.65,4.76-16.37,5.25-16.37,5.25-7.68.35-14.91.69-20.34-4.41A17.44,17.44,0,0,1,114.88,217.29Z"/><path class="cls-22" d="M109.94,223.67c-.17.17-.36.33-.55.49-5.76,4.79-13,4.07-20.76,3.3,0,0-10.78-1.07-16.22-6.13-.25-.23-.46-.46-.49-.49-.41-.47-3.36-3.9-2.42-8.09.14-.63,1-3.66,3.56-4.85a5.47,5.47,0,0,1,1.62-.47,9.32,9.32,0,0,0-1.16,2.66c-.93,4.18,2,7.62,2.43,8.08,0,0,.24.26.49.5,5.44,5.06,16.22,6.13,16.22,6.13C98.9,225.41,104.85,226,109.94,223.67Z"/><path class="cls-22" d="M156.21,222s-.25.25-.51.46c-5.65,4.77-16.37,5.26-16.37,5.26-7.68.35-14.91.68-20.34-4.41a16.48,16.48,0,0,1-3.24-4.21c-.41-.8-1.7-2.67-1.23-3.64.15-.48,4.62,5,7,6.81,5.85,4.44,14.14,3.13,21.82,2.78A38.66,38.66,0,0,0,156.21,222Z"/></g></g></svg>