<svg xmlns="http://www.w3.org/2000/svg" xmlns:xlink="http://www.w3.org/1999/xlink" viewBox="0 0 206.24 274.56"><defs><style>.cls-1{fill:#0c5d2f;}.cls-1,.cls-13,.cls-15,.cls-16,.cls-18,.cls-19,.cls-2,.cls-3,.cls-4{stroke:#231f20;stroke-miterlimit:10;}.cls-1,.cls-2,.cls-3{stroke-width:3px;}.cls-2{fill:#5d9e69;}.cls-3{fill:url(#radial-gradient);}.cls-10,.cls-12,.cls-19,.cls-4,.cls-6{fill:#fff;}.cls-13,.cls-15,.cls-4{stroke-width:2px;}.cls-5{fill:#231f20;}.cls-7{fill:#483831;}.cls-8{fill:#302724;}.cls-12,.cls-9{opacity:0.6;}.cls-10{opacity:0.8;}.cls-11{fill:#0f331c;opacity:0.1;}.cls-13{fill:#accd96;}.cls-14{fill:#3a4235;opacity:0.2;}.cls-15{fill:#54af67;}.cls-16{fill:none;}.cls-17{fill:#d2e8c3;}.cls-18,.cls-20{fill:#55af68;}</style><radialGradient id="radial-gradient" cx="103.12" cy="157.22" r="95.09" gradientUnits="userSpaceOnUse"><stop offset="0" stop-color="#fff"/><stop offset="1" stop-color="#eaece0"/></radialGradient></defs><g id="Layer_2" data-name="Layer 2"><g id="Layer_1-2" data-name="Layer 1"><path class="cls-1" d="M204.74,171.44A101.62,101.62,0,1,1,103.12,69.81,101.14,101.14,0,0,1,204.74,171.44Z"/><polyline class="cls-2" points="100.96 243.13 111.31 270.38 88.59 255.71 94.78 249.82 88.59 241.6"/><polyline class="cls-2" points="126.75 243.13 115.59 270.73 139.41 255.71 133.08 249.82 139.41 241.6"/><path class="cls-3" d="M204.74,170.78a101.17,101.17,0,0,1-11.86,47.68c-22,16.65-51.49,26.83-83.87,26.83-43.26,0-81.32-18.16-103.35-45.65a101.63,101.63,0,1,1,199.08-28.86Z"/><path class="cls-4" d="M101,244.79s18,1.17,24.79,0l-11.16,28-2.73.15Z"/><ellipse class="cls-4" cx="87.3" cy="179.84" rx="23.76" ry="18.03" transform="translate(-99.55 250.93) rotate(-84.94)"/><ellipse class="cls-5" cx="93.5" cy="183.24" rx="11.88" ry="8.34" transform="translate(-97.28 260.2) rotate(-84.94)"/><ellipse class="cls-6" cx="95.63" cy="178.31" rx="5.1" ry="4.05" transform="translate(-90.42 257.83) rotate(-84.94)"/><ellipse class="cls-4" cx="140.78" cy="179.84" rx="18.03" ry="23.76" transform="translate(-10.79 9) rotate(-3.53)"/><ellipse class="cls-5" cx="134.29" cy="182.6" rx="8.34" ry="11.88" transform="translate(-10.98 8.61) rotate(-3.53)"/><ellipse class="cls-6" cx="135.67" cy="177.4" rx="4.05" ry="5.1" transform="translate(-10.65 8.68) rotate(-3.53)"/><path class="cls-5" d="M100.47,137.65s-18.85-.39-32.6,9c0,0,27.49-5.89,32.6-6.28S100.47,137.65,100.47,137.65Z"/><path class="cls-5" d="M129.64,138.1s18.85-.39,32.59,9c0,0-27.49-5.89-32.59-6.28S129.64,138.1,129.64,138.1Z"/><path class="cls-7" d="M113.86,213c.41-1.33,2.15-7.4-1.18-11.94a7.61,7.61,0,0,0-2.05-2c-4.9-3.25-12.07.58-12.56.86-1.11.65-3.48,2.81-8.23,7.15-2.18,2-2.89,2.69-4.37,3.41-2.72,1.32-6.85,2.11-8.8.2-.58-.57-1.11-1.56-.82-2s2.26-.48,3.65.24c.53.28.91.61,1.49.55a2,2,0,0,0,1.23-.84c2.25-2.77-4.43-8.32-9.16-6.07-2.51,1.19-3.42,4.22-3.56,4.85-.93,4.18,2,7.62,2.42,8.08,0,0,.24.27.49.5,5.45,5.06,16.23,6.13,16.23,6.13,7.72.77,15,1.49,20.75-3.3A17.33,17.33,0,0,0,113.86,213Z"/><path class="cls-7" d="M114.88,211.88c-.34-1.36-1.73-7.51,1.8-11.87a8.11,8.11,0,0,1,2.14-1.91c5-3,11.9,1.22,12.37,1.53,1.06.71,3.29,3,7.76,7.58,2.05,2.11,2.71,2.85,4.13,3.64,2.63,1.47,6.67,2.48,8.69.67.61-.54,1.19-1.49.93-2s-2.21-.6-3.63.05c-.54.25-.93.56-1.5.46a2.08,2.08,0,0,1-1.18-.9c-2.07-2.89,4.84-8.07,9.38-5.58,2.42,1.33,3.16,4.41,3.27,5,.7,4.23-2.4,7.5-2.83,7.94,0,0-.25.25-.51.47-5.65,4.76-16.37,5.25-16.37,5.25-7.68.36-14.91.69-20.34-4.4A17.55,17.55,0,0,1,114.88,211.88Z"/><path class="cls-8" d="M109.94,218.26c-.17.17-.36.33-.55.49-5.76,4.79-13,4.07-20.76,3.3,0,0-10.78-1.07-16.22-6.13-.25-.23-.46-.46-.49-.49-.41-.47-3.36-3.9-2.42-8.09.14-.63,1-3.66,3.56-4.85a5.47,5.47,0,0,1,1.62-.47,9.32,9.32,0,0,0-1.16,2.66c-.93,4.18,2,7.62,2.43,8.08,0,0,.24.26.49.5,5.44,5.06,16.22,6.13,16.22,6.13C98.9,220,104.85,220.59,109.94,218.26Z"/><path class="cls-8" d="M156.21,216.59s-.25.25-.51.46c-5.65,4.77-16.37,5.26-16.37,5.26-7.68.35-14.91.68-20.34-4.41a16.48,16.48,0,0,1-3.24-4.21c-.41-.8-1.7-2.67-1.23-3.64.15-.48,4.62,5,7,6.81,5.85,4.45,14.14,3.13,21.82,2.78A38.66,38.66,0,0,0,156.21,216.59Z"/><g class="cls-9"><path class="cls-10" d="M153.69,98.1s-14.9-12.84-28-14.12-16.18,7.44-2.31,12.84,38.78,29.53,38.78,29.53,8,8.48,12.33,1S153.69,98.1,153.69,98.1Z"/><path class="cls-10" d="M176.14,138.75s-3.5,3.76,3.49,16.6,12,11.42,12,11.42,6.75-.16.08-18.53S176.14,138.75,176.14,138.75Z"/></g><path class="cls-11" d="M158,254.59A98.29,98.29,0,0,1,2.6,174.49C2.6,130.93,28.65,89,67.87,76.1c-25,17.82-39,52-39,85.06A98.41,98.41,0,0,0,158,254.59Z"/><path class="cls-12" d="M203.24,171.91a96.63,96.63,0,0,1-11.63,45c-.82,1.53,8.14-22.79,8.14-40a101.62,101.62,0,0,0-177-68.13,101.39,101.39,0,0,1,79.54-38.38C158.4,70.33,204.55,115.79,203.24,171.91Z"/><ellipse class="cls-13" cx="85.3" cy="98.03" rx="78.16" ry="22.37" transform="translate(-19.05 20.59) rotate(-12.39)"/><path class="cls-14" d="M153.85,94.86c-12,9.26-35.32,18.79-63,24.87-42.17,9.27-78.5,7-81.15-5.07C7.92,106.52,21.91,96,44.15,87.17c-6.28,4.84-9.47,9.61-8.56,13.75,2.65,12.07,39,14.35,81.14,5.08A243.25,243.25,0,0,0,153.85,94.86Z"/><polyline class="cls-13" points="34.33 105.97 17.71 30.29 118.29 8.19 134.91 83.88"/><path class="cls-15" d="M31.69,94c1.66,7.53,25.51,8.7,53.29,2.6s49-17.16,47.29-24.7l2.64,12c1.66,7.54-19.51,18.6-47.29,24.7S36,113.51,34.33,106Z"/><path class="cls-16" d="M18.38,33.38C20,40.92,43.9,42.08,71.67,36s49-17.16,47.29-24.7"/><path class="cls-16" d="M30.84,90.1c1.66,7.54,25.52,8.7,53.29,2.6s49-17.16,47.29-24.7"/><ellipse class="cls-13" cx="67.85" cy="18.56" rx="51.49" ry="13.98" transform="translate(-2.4 14.99) rotate(-12.39)"/><path class="cls-17" d="M117.43,7.54c.4,1.34-.14,2.75-1.68,4.7a4.53,4.53,0,0,0,.31-2.53c-1.62-7.35-25.12-8.44-52.48-2.43C41.21,12.19,23.63,20.82,18.67,27.64c2.68-7.15,21.49-16.86,45.94-22.23C92-.6,115.33.34,117.43,7.54Z"/><circle class="cls-18" cx="77.64" cy="63.15" r="23.27"/><path class="cls-19" d="M72.11,44.68l4.66-1.58.38,4.55a10.82,10.82,0,0,1,5.48.4,4,4,0,0,1,2.68,3,4.12,4.12,0,0,1-.7,3.41,5.94,5.94,0,0,1-3.19,2.2q-2.33-5.91-6.36-5a2.88,2.88,0,0,0-1.93,1.26A2.76,2.76,0,0,0,72.78,55a2.58,2.58,0,0,0,.92,1.42,5.71,5.71,0,0,0,1.81,1c.71.26,1.52.52,2.42.78s1.83.52,2.76.76a18.92,18.92,0,0,1,2.81.94,17.56,17.56,0,0,1,2.56,1.32,7.35,7.35,0,0,1,2,1.92,7.06,7.06,0,0,1,1.2,2.69,7.13,7.13,0,0,1-1,5.65,11.24,11.24,0,0,1-5,4L84.77,80l-4.68,1.59-.49-4.87A12.82,12.82,0,0,1,73,76.3q-2.92-1-3.42-3.26a4,4,0,0,1,.61-3.26,5.86,5.86,0,0,1,3.22-2.09,11.51,11.51,0,0,0,3.32,4,4.36,4.36,0,0,0,3.49.85q3.54-.76,3-3.2a2.34,2.34,0,0,0-1-1.39A8.34,8.34,0,0,0,80,67c-.86-.26-1.81-.52-2.83-.78s-2.06-.58-3.12-1a18.65,18.65,0,0,1-2.93-1.33,8.27,8.27,0,0,1-2.38-2,7.28,7.28,0,0,1-1.4-3,8.23,8.23,0,0,1-.17-2,8.66,8.66,0,0,1,.43-2.29,8.94,8.94,0,0,1,1.1-2.29,9.1,9.1,0,0,1,2-2.09,10.83,10.83,0,0,1,2.87-1.63Z"/><path class="cls-20" d="M34.2,77.29A3.79,3.79,0,0,0,30.52,76a3.07,3.07,0,0,0-1.58.95,2.52,2.52,0,0,0-.21.25l3,13.65a3,3,0,0,0,.68.19,3.49,3.49,0,0,0,1.33,0A3.15,3.15,0,0,0,35,90.43a4.31,4.31,0,0,0,1-1.19,6.75,6.75,0,0,0,.71-1.75,9.6,9.6,0,0,0,.24-2.35,15.36,15.36,0,0,0-.35-2.91A10.2,10.2,0,0,0,34.2,77.29ZM34.07,86a7.35,7.35,0,0,1,.06,1.82,1.84,1.84,0,0,1-.28.87.88.88,0,0,1-.54.32.87.87,0,0,1-.64-.06,2.05,2.05,0,0,1-.61-.69,8.77,8.77,0,0,1-.7-1.75c-.24-.81-.5-1.85-.78-3.11s-.43-2.12-.53-2.88a6.3,6.3,0,0,1,0-1.71A2,2,0,0,1,30.3,78a1,1,0,0,1,.54-.31,1.11,1.11,0,0,1,.48,0,1,1,0,0,1,.48.37,3.36,3.36,0,0,1,.53.87,11.83,11.83,0,0,1,.56,1.58c.21.67.41,1.49.62,2.44C33.78,84.22,34,85.24,34.07,86Z"/><path class="cls-20" d="M38.82,87.17a10.43,10.43,0,0,1-.21-2.93,8.76,8.76,0,0,1,.53-2.54,5.57,5.57,0,0,1,1.16-1.83A3.19,3.19,0,0,1,41.88,79a3.84,3.84,0,0,1,3.67,1.23A9.73,9.73,0,0,1,47.86,85a13.61,13.61,0,0,1,.32,2.81,8.58,8.58,0,0,1-.25,2.29,6.59,6.59,0,0,1-.72,1.7,4.12,4.12,0,0,1-1,1.17,3.2,3.2,0,0,1-1.21.57,3.71,3.71,0,0,1-1.33,0A4,4,0,0,1,42.25,93a6.17,6.17,0,0,1-1.35-1.15A8.12,8.12,0,0,1,39.72,90,13.85,13.85,0,0,1,38.82,87.17Zm3.06-1c.26,1.23.52,2.23.75,3a7.65,7.65,0,0,0,.69,1.7,1.76,1.76,0,0,0,.6.67.91.91,0,0,0,.64.07.93.93,0,0,0,.54-.32,1.84,1.84,0,0,0,.29-.84,6.5,6.5,0,0,0,0-1.78c-.09-.78-.27-1.76-.53-3-.2-.93-.4-1.72-.59-2.38a13.05,13.05,0,0,0-.55-1.53,3.38,3.38,0,0,0-.52-.85,1.13,1.13,0,0,0-.48-.35,1.11,1.11,0,0,0-.48,0,1,1,0,0,0-.54.3,1.8,1.8,0,0,0-.3.79,5.86,5.86,0,0,0,0,1.66C41.47,84.11,41.63,85,41.88,86.17Z"/><path class="cls-14" d="M22.62,55.81s12.24,59.32,53.13,55.78c0,0-40,5.32-42-5.23Z"/></g></g></svg>