<svg width="59" height="15" viewBox="0 0 59 15" fill="none" xmlns="http://www.w3.org/2000/svg">
<path d="M8.84767 4.008C9.39167 4.008 9.86367 4.092 10.2637 4.26C10.6717 4.42 10.9797 4.644 11.1877 4.932C11.4037 5.212 11.5117 5.536 11.5117 5.904C11.5117 6.112 11.4837 6.304 11.4277 6.48C11.1957 7.288 10.5277 7.8 9.42367 8.016C9.80767 8.128 10.1117 8.316 10.3357 8.58C10.5597 8.836 10.6717 9.156 10.6717 9.54C10.6717 9.716 10.6397 9.924 10.5757 10.164C10.3997 10.788 10.0437 11.252 9.50767 11.556C8.97967 11.852 8.22767 12 7.25167 12H2.25967C2.09167 12 1.96367 11.972 1.87567 11.916C1.77967 11.86 1.73167 11.784 1.73167 11.688C1.73167 11.64 1.74367 11.588 1.76767 11.532C1.79967 11.444 1.85167 11.376 1.92367 11.328C1.99567 11.28 2.03967 11.252 2.05567 11.244C2.18367 11.164 2.28767 11.084 2.36767 11.004C2.44767 10.916 2.51567 10.776 2.57167 10.584L4.03567 5.412C4.06767 5.308 4.08367 5.208 4.08367 5.112C4.08367 5.024 4.06767 4.952 4.03567 4.896C4.01167 4.832 3.97567 4.76 3.92767 4.68C3.85567 4.576 3.81967 4.492 3.81967 4.428C3.81967 4.404 3.82767 4.36 3.84367 4.296C3.87567 4.192 3.94367 4.12 4.04767 4.08C4.15967 4.032 4.32767 4.008 4.55167 4.008H8.84767ZM8.30767 6.204C8.36367 6.028 8.39167 5.864 8.39167 5.712C8.39167 5.296 8.15567 5.088 7.68367 5.088H7.14367L6.50767 7.332H7.03567C7.37167 7.332 7.63567 7.252 7.82767 7.092C8.02767 6.924 8.18767 6.628 8.30767 6.204ZM7.43167 9.732C7.48767 9.54 7.51567 9.364 7.51567 9.204C7.51567 8.772 7.26767 8.556 6.77167 8.556H6.17167L5.48767 10.92H6.09967C6.44367 10.92 6.71967 10.836 6.92767 10.668C7.13567 10.492 7.30367 10.18 7.43167 9.732ZM18.5102 10.584C18.4782 10.688 18.4622 10.792 18.4622 10.896C18.4622 10.984 18.4742 11.06 18.4982 11.124C18.5222 11.18 18.5462 11.228 18.5702 11.268C18.6022 11.3 18.6222 11.324 18.6302 11.34C18.7102 11.42 18.7502 11.5 18.7502 11.58C18.7502 11.596 18.7422 11.636 18.7262 11.7C18.6942 11.812 18.6222 11.892 18.5102 11.94C18.4062 11.98 18.2422 12 18.0182 12H15.1742C15.0062 12 14.8742 11.972 14.7782 11.916C14.6902 11.86 14.6462 11.784 14.6462 11.688C14.6462 11.64 14.6582 11.588 14.6822 11.532C14.7062 11.468 14.7382 11.42 14.7782 11.388C14.8262 11.348 14.8902 11.304 14.9702 11.256C15.0982 11.184 15.2022 11.104 15.2822 11.016C15.3622 10.928 15.4302 10.784 15.4862 10.584L15.7982 9.552H13.9262L13.6022 10.236C13.4662 10.532 13.3982 10.764 13.3982 10.932C13.3982 11.028 13.4142 11.108 13.4462 11.172C13.4782 11.228 13.5262 11.288 13.5902 11.352C13.6462 11.416 13.6822 11.472 13.6982 11.52C13.7222 11.56 13.7262 11.616 13.7102 11.688C13.6782 11.808 13.6102 11.892 13.5062 11.94C13.4102 11.98 13.2542 12 13.0382 12H11.2502C11.0662 12 10.9262 11.968 10.8302 11.904C10.7342 11.832 10.6862 11.74 10.6862 11.628C10.6862 11.5 10.7342 11.4 10.8302 11.328C10.9182 11.248 11.0542 11.164 11.2382 11.076C11.4782 10.956 11.6702 10.84 11.8142 10.728C11.9582 10.608 12.0822 10.444 12.1862 10.236L14.3222 5.808C14.6502 5.12 15.0342 4.624 15.4742 4.32C15.9222 4.008 16.5102 3.852 17.2382 3.852C18.0542 3.852 18.6862 4.02 19.1342 4.356C19.5822 4.684 19.8062 5.144 19.8062 5.736C19.8062 5.984 19.7662 6.24 19.6862 6.504L18.5102 10.584ZM16.1582 8.352L16.7942 6.24C16.8262 6.144 16.8422 6.044 16.8422 5.94C16.8422 5.788 16.7982 5.676 16.7102 5.604C16.6302 5.524 16.5142 5.484 16.3622 5.484C16.1702 5.484 16.0062 5.54 15.8702 5.652C15.7342 5.764 15.5982 5.964 15.4622 6.252L14.4782 8.352H16.1582ZM26.5559 8.904C26.7799 8.904 26.9479 8.952 27.0599 9.048C27.1799 9.136 27.2399 9.264 27.2399 9.432C27.2399 9.504 27.2279 9.584 27.2039 9.672L26.8079 11.076C26.7039 11.42 26.5559 11.66 26.3639 11.796C26.1799 11.932 25.9039 12 25.5359 12H19.8959C19.7279 12 19.5999 11.972 19.5119 11.916C19.4159 11.86 19.3679 11.784 19.3679 11.688C19.3679 11.64 19.3799 11.588 19.4039 11.532C19.4279 11.468 19.4679 11.416 19.5239 11.376C19.5799 11.328 19.6399 11.284 19.7039 11.244C19.8319 11.164 19.9359 11.084 20.0159 11.004C20.0959 10.916 20.1639 10.776 20.2199 10.584L21.6839 5.412C21.7159 5.308 21.7319 5.208 21.7319 5.112C21.7319 5.024 21.7159 4.952 21.6839 4.896C21.6599 4.832 21.6239 4.76 21.5759 4.68C21.5039 4.576 21.4679 4.492 21.4679 4.428C21.4679 4.404 21.4759 4.36 21.4919 4.296C21.5239 4.192 21.5919 4.12 21.6959 4.08C21.8079 4.032 21.9759 4.008 22.1999 4.008H25.0199C25.1879 4.008 25.3159 4.036 25.4039 4.092C25.4999 4.14 25.5479 4.212 25.5479 4.308C25.5479 4.348 25.5359 4.4 25.5119 4.464C25.4879 4.52 25.4519 4.572 25.4039 4.62C25.3639 4.66 25.3239 4.692 25.2839 4.716C25.2519 4.732 25.2279 4.748 25.2119 4.764C25.0839 4.836 24.9799 4.916 24.8999 5.004C24.8199 5.092 24.7519 5.228 24.6959 5.412L23.1479 10.848H23.8919C24.0759 10.848 24.2319 10.816 24.3599 10.752C24.4959 10.688 24.6359 10.568 24.7799 10.392L25.6079 9.408C25.7599 9.232 25.9039 9.104 26.0399 9.024C26.1839 8.944 26.3559 8.904 26.5559 8.904ZM34.6123 8.904C34.8363 8.904 35.0043 8.952 35.1163 9.048C35.2363 9.136 35.2963 9.264 35.2963 9.432C35.2963 9.504 35.2843 9.584 35.2603 9.672L34.8643 11.076C34.7603 11.42 34.6123 11.66 34.4203 11.796C34.2363 11.932 33.9603 12 33.5923 12H27.9523C27.7843 12 27.6563 11.972 27.5683 11.916C27.4723 11.86 27.4243 11.784 27.4243 11.688C27.4243 11.64 27.4363 11.588 27.4603 11.532C27.4843 11.468 27.5243 11.416 27.5803 11.376C27.6363 11.328 27.6963 11.284 27.7603 11.244C27.8883 11.164 27.9923 11.084 28.0723 11.004C28.1523 10.916 28.2203 10.776 28.2763 10.584L29.7403 5.412C29.7723 5.308 29.7883 5.208 29.7883 5.112C29.7883 5.024 29.7723 4.952 29.7403 4.896C29.7163 4.832 29.6803 4.76 29.6323 4.68C29.5603 4.576 29.5243 4.492 29.5243 4.428C29.5243 4.404 29.5323 4.36 29.5483 4.296C29.5803 4.192 29.6483 4.12 29.7523 4.08C29.8643 4.032 30.0323 4.008 30.2563 4.008H33.0763C33.2443 4.008 33.3723 4.036 33.4603 4.092C33.5563 4.14 33.6043 4.212 33.6043 4.308C33.6043 4.348 33.5923 4.4 33.5683 4.464C33.5443 4.52 33.5083 4.572 33.4603 4.62C33.4203 4.66 33.3803 4.692 33.3403 4.716C33.3083 4.732 33.2843 4.748 33.2683 4.764C33.1403 4.836 33.0363 4.916 32.9563 5.004C32.8763 5.092 32.8083 5.228 32.7523 5.412L31.2043 10.848H31.9483C32.1323 10.848 32.2883 10.816 32.4163 10.752C32.5523 10.688 32.6923 10.568 32.8363 10.392L33.6643 9.408C33.8163 9.232 33.9603 9.104 34.0963 9.024C34.2403 8.944 34.4123 8.904 34.6123 8.904ZM43.6167 4.008C43.9127 4.008 44.1407 4.072 44.3007 4.2C44.4687 4.328 44.5527 4.504 44.5527 4.728C44.5527 4.84 44.5367 4.948 44.5047 5.052L44.1927 6.168C44.1367 6.376 44.0447 6.524 43.9167 6.612C43.7887 6.7 43.6207 6.744 43.4127 6.744C43.2127 6.744 43.0527 6.704 42.9327 6.624C42.8127 6.536 42.7247 6.396 42.6687 6.204L42.4767 5.52C42.4447 5.4 42.4047 5.32 42.3567 5.28C42.3087 5.24 42.2087 5.22 42.0567 5.22H40.8567L40.1847 7.596H40.4127C40.5247 7.596 40.6207 7.58 40.7007 7.548C40.7887 7.516 40.8807 7.456 40.9767 7.368L41.3487 7.056C41.4847 6.936 41.6047 6.852 41.7087 6.804C41.8207 6.748 41.9367 6.72 42.0567 6.72C42.2087 6.72 42.3327 6.764 42.4287 6.852C42.5327 6.94 42.5847 7.064 42.5847 7.224C42.5847 7.288 42.5727 7.364 42.5487 7.452L42.0207 9.276C41.9007 9.668 41.6847 9.864 41.3727 9.864C41.1167 9.864 40.9167 9.732 40.7727 9.468L40.5567 9.06C40.5007 8.948 40.4487 8.876 40.4007 8.844C40.3527 8.812 40.2807 8.796 40.1847 8.796H39.8367L39.3327 10.584C39.3167 10.632 39.3087 10.696 39.3087 10.776C39.3087 10.888 39.3327 10.98 39.3807 11.052C39.4367 11.124 39.5167 11.2 39.6207 11.28C39.7087 11.352 39.7687 11.412 39.8007 11.46C39.8327 11.5 39.8487 11.552 39.8487 11.616C39.8487 11.76 39.7847 11.86 39.6567 11.916C39.5287 11.972 39.3407 12 39.0927 12H36.0807C35.8727 12 35.7167 11.964 35.6127 11.892C35.5087 11.812 35.4727 11.704 35.5047 11.568C35.5207 11.496 35.5527 11.44 35.6007 11.4C35.6407 11.352 35.7047 11.3 35.7927 11.244C35.9287 11.164 36.0367 11.08 36.1167 10.992C36.1967 10.904 36.2607 10.768 36.3087 10.584L37.7847 5.412C37.8167 5.308 37.8327 5.212 37.8327 5.124C37.8327 5.028 37.8167 4.948 37.7847 4.884C37.7607 4.82 37.7207 4.752 37.6647 4.68C37.5927 4.576 37.5567 4.492 37.5567 4.428C37.5567 4.404 37.5647 4.36 37.5807 4.296C37.6127 4.192 37.6847 4.12 37.7967 4.08C37.9087 4.032 38.0727 4.008 38.2887 4.008H43.6167ZM46.7591 5.652C47.2231 5.652 47.5631 5.74 47.7791 5.916C47.9951 6.092 48.1031 6.332 48.1031 6.636C48.1031 6.82 48.0751 6.996 48.0191 7.164L46.9151 10.752C46.8911 10.848 46.8791 10.932 46.8791 11.004C46.8791 11.108 46.8991 11.192 46.9391 11.256C46.9791 11.312 47.0351 11.368 47.1071 11.424C47.1631 11.48 47.2031 11.528 47.2271 11.568C47.2511 11.6 47.2551 11.644 47.2391 11.7C47.1991 11.804 47.1191 11.88 46.9991 11.928C46.8791 11.976 46.6951 12 46.4471 12H43.7111C43.5031 12 43.3511 11.968 43.2551 11.904C43.1591 11.832 43.1271 11.74 43.1591 11.628C43.1911 11.532 43.2751 11.448 43.4111 11.376C43.5311 11.312 43.6311 11.236 43.7111 11.148C43.7911 11.06 43.8591 10.92 43.9151 10.728L44.9591 7.26C44.9831 7.188 44.9951 7.128 44.9951 7.08C44.9951 6.992 44.9751 6.924 44.9351 6.876C44.8951 6.82 44.8351 6.764 44.7551 6.708C44.6751 6.644 44.6191 6.588 44.5871 6.54C44.5551 6.492 44.5511 6.428 44.5751 6.348C44.6231 6.164 44.8751 6.004 45.3311 5.868C45.7871 5.724 46.2631 5.652 46.7591 5.652ZM47.5631 3C47.8751 3 48.1351 3.104 48.3431 3.312C48.5511 3.512 48.6551 3.76 48.6551 4.056C48.6551 4.264 48.5991 4.468 48.4871 4.668C48.3831 4.868 48.2311 5.032 48.0311 5.16C47.8391 5.28 47.6231 5.34 47.3831 5.34C47.0791 5.34 46.8231 5.24 46.6151 5.04C46.4151 4.832 46.3111 4.576 46.3031 4.272C46.3031 4.072 46.3551 3.876 46.4591 3.684C46.5631 3.484 46.7111 3.32 46.9031 3.192C47.0951 3.064 47.3151 3 47.5631 3ZM57.5856 4.008C57.9136 4.008 58.0776 4.112 58.0776 4.32C58.0776 4.376 58.0736 4.416 58.0656 4.44C58.0416 4.52 58.0056 4.584 57.9576 4.632C57.9096 4.672 57.8416 4.72 57.7536 4.776C57.6336 4.848 57.5336 4.928 57.4536 5.016C57.3736 5.104 57.3056 5.24 57.2496 5.424L55.7616 10.752C55.6256 11.232 55.4536 11.568 55.2456 11.76C55.0456 11.952 54.7656 12.048 54.4056 12.048C54.0856 12.048 53.8176 11.956 53.6016 11.772C53.3936 11.58 53.1976 11.288 53.0136 10.896L51.2016 7.08L50.1936 10.584C50.1696 10.688 50.1576 10.78 50.1576 10.86C50.1576 10.964 50.1736 11.052 50.2056 11.124C50.2456 11.188 50.2976 11.256 50.3616 11.328C50.4496 11.432 50.4936 11.52 50.4936 11.592C50.4936 11.64 50.4896 11.676 50.4816 11.7C50.4496 11.812 50.3776 11.892 50.2656 11.94C50.1536 11.98 49.9856 12 49.7616 12H48.4536C48.1256 12 47.9616 11.896 47.9616 11.688C47.9616 11.632 47.9656 11.592 47.9736 11.568C47.9976 11.488 48.0336 11.428 48.0816 11.388C48.1296 11.34 48.1976 11.288 48.2856 11.232C48.4056 11.16 48.5056 11.08 48.5856 10.992C48.6656 10.904 48.7336 10.768 48.7896 10.584L50.3136 5.196L50.1216 4.8C50.0416 4.64 50.0016 4.5 50.0016 4.38C50.0016 4.132 50.1616 4.008 50.4816 4.008H52.2576C52.5136 4.008 52.7056 4.068 52.8336 4.188C52.9696 4.3 53.1136 4.504 53.2656 4.8L55.0176 8.316L55.8456 5.424C55.8696 5.312 55.8816 5.22 55.8816 5.148C55.8816 5.044 55.8616 4.96 55.8216 4.896C55.7896 4.824 55.7416 4.752 55.6776 4.68C55.5896 4.576 55.5456 4.488 55.5456 4.416C55.5456 4.368 55.5496 4.332 55.5576 4.308C55.5896 4.196 55.6616 4.12 55.7736 4.08C55.8856 4.032 56.0536 4.008 56.2776 4.008H57.5856Z" fill="#0A5C2B"/>
<path d="M48.4225 4.9411C47.9636 5.52876 47.1682 5.6745 46.6458 5.26663C46.1235 4.85875 46.072 4.05171 46.5308 3.46405C46.9897 2.87639 47.7851 2.73065 48.3075 3.13853C48.8299 3.5464 48.8813 4.35344 48.4225 4.9411Z" fill="#A5CB28"/>
<path d="M47.3342 4.871C47.3112 4.871 47.2927 4.8645 47.2787 4.8515C47.2657 4.8395 47.2592 4.8225 47.2592 4.8005C47.2592 4.7895 47.2607 4.778 47.2637 4.766L47.2877 4.673C47.2497 4.657 47.2102 4.633 47.1692 4.601L47.1152 4.646C47.0902 4.667 47.0697 4.6815 47.0537 4.6895C47.0377 4.6965 47.0197 4.7 46.9997 4.7C46.9767 4.7 46.9587 4.6945 46.9457 4.6835C46.9317 4.6725 46.9247 4.6575 46.9247 4.6385C46.9247 4.6285 46.9267 4.618 46.9307 4.607L47.0042 4.3835C47.0122 4.3575 47.0232 4.339 47.0372 4.328C47.0512 4.317 47.0692 4.3115 47.0912 4.3115C47.1142 4.3115 47.1347 4.3195 47.1527 4.3355C47.1717 4.3515 47.1962 4.3805 47.2262 4.4225C47.2642 4.4765 47.2987 4.511 47.3297 4.526L47.3807 4.3385C47.3727 4.3335 47.3427 4.3155 47.2907 4.2845C47.2397 4.2525 47.1992 4.2145 47.1692 4.1705C47.1402 4.1265 47.1257 4.0785 47.1257 4.0265C47.1257 3.9925 47.1312 3.9575 47.1422 3.9215C47.1632 3.8525 47.2062 3.797 47.2712 3.755C47.3362 3.713 47.4107 3.692 47.4947 3.692L47.5577 3.695L47.5817 3.605C47.5897 3.578 47.6007 3.559 47.6147 3.548C47.6297 3.537 47.6492 3.5315 47.6732 3.5315C47.6932 3.5315 47.7082 3.5375 47.7182 3.5495C47.7292 3.5605 47.7347 3.576 47.7347 3.596C47.7347 3.61 47.7327 3.623 47.7287 3.635L47.7017 3.731C47.7167 3.733 47.7477 3.748 47.7947 3.776L47.8292 3.7475C47.8532 3.7285 47.8727 3.7155 47.8877 3.7085C47.9037 3.7015 47.9217 3.698 47.9417 3.698C47.9657 3.698 47.9847 3.7035 47.9987 3.7145C48.0127 3.7245 48.0197 3.7395 48.0197 3.7595C48.0197 3.7675 48.0182 3.776 48.0152 3.785L47.9522 3.992C47.9452 4.016 47.9362 4.033 47.9252 4.043C47.9152 4.053 47.8997 4.058 47.8787 4.058C47.8567 4.058 47.8372 4.0515 47.8202 4.0385C47.8042 4.0245 47.7787 3.9965 47.7437 3.9545C47.7237 3.9315 47.7077 3.9145 47.6957 3.9035C47.6847 3.8925 47.6732 3.8835 47.6612 3.8765L47.6132 4.052C47.6212 4.057 47.6522 4.0755 47.7062 4.1075C47.7602 4.1395 47.8032 4.1785 47.8352 4.2245C47.8672 4.2695 47.8832 4.3175 47.8832 4.3685C47.8832 4.3995 47.8782 4.4305 47.8682 4.4615C47.8442 4.5415 47.7977 4.6025 47.7287 4.6445C47.6597 4.6855 47.5792 4.706 47.4872 4.706H47.4332L47.4077 4.796C47.3997 4.822 47.3897 4.841 47.3777 4.853C47.3667 4.865 47.3522 4.871 47.3342 4.871ZM47.5202 3.8315C47.4872 3.8295 47.4597 3.836 47.4377 3.851C47.4157 3.865 47.4047 3.885 47.4047 3.911C47.4047 3.928 47.4102 3.944 47.4212 3.959C47.4332 3.974 47.4502 3.987 47.4722 3.998L47.5202 3.8315ZM47.4707 4.5635C47.5037 4.5655 47.5312 4.5595 47.5532 4.5455C47.5752 4.5305 47.5862 4.51 47.5862 4.484C47.5862 4.467 47.5802 4.451 47.5682 4.436C47.5572 4.421 47.5407 4.408 47.5187 4.397L47.4707 4.5635Z" fill="white"/>
</svg>
